<svg width="46" height="21" viewBox="0 0 46 21" fill="none" xmlns="http://www.w3.org/2000/svg">
<g opacity="0.0502901">
<path d="M27.2391 18.4908L26.947 15.4999C28.4955 15.0838 29.5436 14.4252 30.0912 13.5242C30.6389 12.6231 30.8077 11.0969 30.5975 8.94557L26.5834 9.33765L25.8531 1.86043L33.5665 1.10703L34.1815 7.40364C34.4992 10.6569 34.1418 13.2345 33.1092 15.1364C32.0817 17.0908 30.125 18.2089 27.2391 18.4908ZM38.573 17.3838L38.2809 14.3929C39.8294 13.9768 40.8775 13.3182 41.4251 12.4171C41.9728 11.5161 42.1416 9.98988 41.9314 7.83854L37.9173 8.23062L37.187 0.753393L44.9004 -4.2418e-06L45.5154 6.2966C45.8331 9.54985 45.4757 12.1274 44.4431 14.0294C43.4156 15.9837 41.4589 17.1019 38.573 17.3838Z" fill="white" fill-opacity="0.22"/>
<path d="M19.2835 2.50211L19.5756 5.493C18.0271 5.90911 16.979 6.56769 16.4313 7.46874C15.8888 8.42227 15.72 9.94846 15.9251 12.0473L19.9391 11.6553L20.6695 19.1325L12.9561 19.8859L12.3411 13.5893C12.0233 10.336 12.3782 7.7322 13.4057 5.77781C14.4383 3.8759 16.3975 2.78399 19.2835 2.50211ZM7.94959 3.60914L8.24172 6.60003C6.6932 7.01614 5.6451 7.67473 5.09745 8.57578C4.55491 9.5293 4.38615 11.0555 4.59116 13.1544L8.60525 12.7623L9.33558 20.2395L1.62223 20.9929L1.00721 14.6963C0.689455 11.4431 1.04431 8.83923 2.07178 6.88485C3.10437 4.98293 5.06365 3.89103 7.94959 3.60914Z" fill="white" fill-opacity="0.22"/>
</g>
</svg>
