<svg width="22" height="26" viewBox="0 0 22 26" fill="none" xmlns="http://www.w3.org/2000/svg">
<path opacity="0.539615" d="M9.00329 9.06781e-06L11.3623 1.86174C10.5893 3.26661 10.338 4.47866 10.6082 5.49787C10.8784 6.51709 11.8619 7.69627 13.5587 9.03541L16.0574 5.86944L21.9548 10.5238L17.1534 16.6074L12.1872 12.688C9.62132 10.6629 8.01044 8.61921 7.35456 6.55684C6.6573 4.46181 7.20688 2.2762 9.00329 9.06781e-06ZM1.9483 8.93923L4.30726 10.801C3.53432 12.2058 3.28297 13.4179 3.55319 14.4371C3.82341 15.4563 4.80692 16.6355 6.50371 17.9746L9.00236 14.8087L14.8998 19.463L10.0984 25.5466L5.13221 21.6272C2.56632 19.6021 0.955441 17.5584 0.299566 15.4961C-0.397692 13.401 0.151885 11.2154 1.9483 8.93923Z" fill="white" fill-opacity="0.22"/>
</svg>
