<svg width="20" height="21" viewBox="0 0 20 21" fill="none" xmlns="http://www.w3.org/2000/svg">
<path opacity="0.314188" d="M19.475 18.1432L16.5058 18.6068C16.0014 17.0847 15.2837 16.0762 14.3526 15.5813C13.4216 15.0863 11.8882 15.0055 9.75251 15.3389L10.3746 19.3239L2.95175 20.4827L1.75629 12.8254L8.00714 11.8495C11.2368 11.3453 13.8306 11.554 15.7887 12.4756C17.7989 13.3891 19.0277 15.2783 19.475 18.1432ZM17.7184 6.8917L14.7492 7.35525C14.2448 5.8332 13.5271 4.82469 12.596 4.32972C11.665 3.83475 10.1316 3.75398 7.99592 4.08741L8.61805 8.07233L1.19516 9.23119L-0.000298187 1.57389L6.25055 0.598009C9.48016 0.0938023 12.074 0.302489 14.0321 1.22407C16.0424 2.13752 17.2711 4.02673 17.7184 6.8917Z" fill="white" fill-opacity="0.22"/>
</svg>
