<svg width="22" height="25" viewBox="0 0 22 25" fill="none" xmlns="http://www.w3.org/2000/svg">
<path opacity="0.327624" d="M6.68096 0.0107121L9.36757 1.35715C8.89459 2.88926 8.89343 4.12709 9.36411 5.07064C9.83479 6.01419 11.0364 6.97021 12.9688 7.9387L14.7759 4.33298L21.4924 7.69907L18.02 14.6277L12.364 11.7931C9.44174 10.3286 7.45098 8.65268 6.39173 6.76547C5.28536 4.85464 5.38177 2.60305 6.68096 0.0107121ZM1.57868 10.1916L4.26529 11.538C3.79231 13.0701 3.79116 14.3079 4.26183 15.2515C4.73251 16.195 5.93408 17.151 7.86656 18.1195L9.67361 14.5138L16.3901 17.8799L12.9178 24.8085L7.26173 21.9739C4.33946 20.5094 2.3487 18.8335 1.28945 16.9463C0.183081 15.0355 0.279491 12.7839 1.57868 10.1916Z" fill="white" fill-opacity="0.22"/>
</svg>
