<svg width="26" height="23" viewBox="0 0 26 23" fill="none" xmlns="http://www.w3.org/2000/svg">
<path opacity="0.89772" d="M25.0581 12.3144L22.6828 14.1552C21.5056 13.0666 20.3898 12.5306 19.3355 12.5472C18.2812 12.5639 16.8998 13.2343 15.1913 14.5584L17.6619 17.7463L11.7237 22.3484L6.9762 16.2227L11.9768 12.3472C14.5605 10.3449 16.9321 9.27391 19.0918 9.13431C21.2931 8.96241 23.2819 10.0224 25.0581 12.3144ZM18.0822 3.31328L15.707 5.15413C14.5297 4.06546 13.414 3.52945 12.3597 3.54612C11.3054 3.56279 9.92395 4.23319 8.21541 5.55731L10.686 8.7452L4.74779 13.3473L0.000328116 7.22158L5.00094 3.3461C7.5846 1.34377 9.95624 0.272802 12.1159 0.133199C14.3172 -0.0386975 16.306 1.02133 18.0822 3.31328Z" fill="white" fill-opacity="0.11"/>
</svg>
