<svg width="19" height="19" viewBox="0 0 19 19" fill="none" xmlns="http://www.w3.org/2000/svg">
<path d="M9.5 0C4.275 0 0 4.275 0 9.5C0 14.725 4.275 19 9.5 19C14.725 19 19 14.725 19 9.5C19 4.275 14.725 0 9.5 0ZM9.5 2.375C13.4425 2.375 16.625 5.5575 16.625 9.5C16.625 13.4425 13.4425 16.625 9.5 16.625C5.5575 16.625 2.375 13.4425 2.375 9.5C2.375 5.5575 5.5575 2.375 9.5 2.375ZM8.3125 4.75V10.0225L8.6925 10.3313L9.88 11.5188L10.6875 12.4213L12.3975 10.7113L11.495 9.90375L10.6875 9.09625V4.7975H8.3125V4.75Z" fill="#7D009F"/>
</svg>
