<svg width="30" height="29" viewBox="0 0 30 29" fill="none" xmlns="http://www.w3.org/2000/svg">
<path d="M13.0737 0.0359248C6.14019 0.0359248 0.5 5.67611 0.5 12.6096C0.5 19.5431 6.14019 25.1833 13.0737 25.1833C15.1932 25.1833 17.2769 24.6803 19.0372 23.7103C19.1782 23.88 19.3345 24.0364 19.5042 24.1774L23.0967 27.7698C23.4284 28.1431 23.8329 28.4446 24.2854 28.6559C24.7378 28.8672 25.2287 28.9837 25.7279 28.9984C26.227 29.0131 26.7239 28.9256 27.188 28.7413C27.6521 28.5571 28.0736 28.2798 28.4267 27.9267C28.7798 27.5736 29.0571 27.1521 29.2413 26.688C29.4256 26.2239 29.5131 25.727 29.4984 25.2279C29.4837 24.7287 29.3672 24.2378 29.1559 23.7854C28.9446 23.3329 28.6431 22.9284 28.2698 22.5967L24.6774 19.0042C24.5024 18.8291 24.3097 18.6726 24.1026 18.5372C25.0725 16.7769 25.6833 14.7292 25.6833 12.5737C25.6833 5.64019 20.0431 0 13.1096 0L13.0737 0.0359248ZM13.0737 3.6284C18.0672 3.6284 22.0549 7.61605 22.0549 12.6096C22.0549 14.9806 21.1927 17.172 19.6838 18.7887C19.6479 18.8246 19.612 18.8605 19.576 18.8964C19.4064 19.0374 19.25 19.1938 19.109 19.3635C17.5283 20.8004 15.3729 21.6267 13.0377 21.6267C8.0442 21.6267 4.05655 17.6391 4.05655 12.6455C4.05655 7.65198 8.0442 3.66433 13.0377 3.66433L13.0737 3.6284Z" fill="white"/>
</svg>
