<svg width="39" height="39" viewBox="0 0 39 39" fill="none" xmlns="http://www.w3.org/2000/svg">
<path d="M32.6016 19.4746C32.6016 19.0176 32.4492 18.6367 32.1445 18.332L22.9531 9.14062L20.6426 6.83008C20.3379 6.52539 19.957 6.37305 19.5 6.37305C19.043 6.37305 18.6621 6.52539 18.3574 6.83008L16.0469 9.14062L6.85547 18.332C6.55078 18.6367 6.39844 19.0176 6.39844 19.4746C6.39844 19.9316 6.55078 20.3125 6.85547 20.6172L9.16602 22.9277C9.4707 23.2324 9.85156 23.3848 10.3086 23.3848C10.7656 23.3848 11.1465 23.2324 11.4512 22.9277L16.25 18.1289V30.875C16.25 31.3151 16.4108 31.696 16.7324 32.0176C17.054 32.3392 17.4349 32.5 17.875 32.5H21.125C21.5651 32.5 21.946 32.3392 22.2676 32.0176C22.5892 31.696 22.75 31.3151 22.75 30.875V18.1289L27.5488 22.9277C27.8704 23.2493 28.2513 23.4102 28.6914 23.4102C29.1315 23.4102 29.5124 23.2493 29.834 22.9277L32.1445 20.6172C32.4492 20.3125 32.6016 19.9316 32.6016 19.4746ZM39 19.5C39 23.0378 38.1283 26.3005 36.3848 29.2881C34.6413 32.2757 32.2757 34.6413 29.2881 36.3848C26.3005 38.1283 23.0378 39 19.5 39C15.9622 39 12.6995 38.1283 9.71191 36.3848C6.72428 34.6413 4.35872 32.2757 2.61523 29.2881C0.871745 26.3005 0 23.0378 0 19.5C0 15.9622 0.871745 12.6995 2.61523 9.71191C4.35872 6.72428 6.72428 4.35872 9.71191 2.61523C12.6995 0.871745 15.9622 0 19.5 0C23.0378 0 26.3005 0.871745 29.2881 2.61523C32.2757 4.35872 34.6413 6.72428 36.3848 9.71191C38.1283 12.6995 39 15.9622 39 19.5Z" fill="#7D009F"/>
</svg>
