<svg width="24" height="24" viewBox="0 0 24 24" fill="none" xmlns="http://www.w3.org/2000/svg">
<g clip-path="url(#clip0_966_1575)">
<path d="M22.6755 24C23.407 24 24 23.4069 24 22.6754V1.32457C24 0.592862 23.4069 0 22.6755 0H1.32458C0.592867 0 0 0.592952 0 1.32457V22.6753C0 23.4069 0.592867 23.9999 1.32458 23.9999L22.6755 24Z" fill="white"/>
<path d="M16.5596 24V14.7059H19.6792L20.1463 11.0838H16.5595V8.77129C16.5595 7.72261 16.8507 7.00799 18.3546 7.00799L20.2725 7.00709V3.76752C19.9408 3.72346 18.8022 3.62482 17.4777 3.62482C14.7123 3.62482 12.819 5.31276 12.819 8.41268V11.0838H9.69141V14.7059H12.819V23.9999L16.5596 24Z" fill="black"/>
</g>
<defs>
<clipPath id="clip0_966_1575">
<rect width="24" height="24" fill="white"/>
</clipPath>
</defs>
</svg>
