<svg width="27" height="28" viewBox="0 0 27 28" fill="none" xmlns="http://www.w3.org/2000/svg">
<path d="M26.9978 20.7176C26.9978 20.8654 26.9933 21.186 26.9844 21.4337C26.9627 22.0396 26.9147 22.8216 26.842 23.1778C26.7329 23.7132 26.568 24.2186 26.3532 24.6392C26.0989 25.1367 25.7746 25.5824 25.3892 25.9671C25.0047 26.351 24.5595 26.674 24.0626 26.9272C23.6398 27.1427 23.1313 27.3076 22.5929 27.4163C22.2402 27.4875 21.4641 27.5346 20.862 27.556C20.6141 27.5649 20.2934 27.5693 20.1462 27.5693L6.8517 27.5672C6.70387 27.5672 6.38331 27.5627 6.13565 27.5538C5.52968 27.5321 4.74777 27.484 4.39148 27.4114C3.85609 27.3022 3.35073 27.1374 2.93014 26.9225C2.43256 26.6683 1.9869 26.3439 1.60224 25.9586C1.21835 25.5741 0.895313 25.1288 0.64212 24.632C0.426603 24.2092 0.26171 23.7007 0.153002 23.1623C0.0818139 22.8095 0.0346978 22.0335 0.0132621 21.4313C0.00445587 21.1835 0 20.8628 0 20.7156L0.00210929 7.42106C0.00210929 7.27322 0.00661789 6.95264 0.0155033 6.70498C0.0372553 6.09901 0.0852679 5.3171 0.157906 4.96084C0.267088 4.42545 0.431876 3.92009 0.646786 3.49948C0.901034 3.00192 1.22536 2.55623 1.6107 2.17157C1.99523 1.78771 2.4405 1.46465 2.93731 1.21143C3.36015 0.995965 3.86867 0.831072 4.40709 0.722365C4.75979 0.65115 5.53588 0.604034 6.13797 0.582624C6.38586 0.573792 6.70656 0.569336 6.85378 0.569336L20.1483 0.571472C20.2961 0.571472 20.6167 0.57598 20.8643 0.584866C21.4703 0.606618 22.2522 0.65463 22.6085 0.727269C23.1439 0.83645 23.6492 1.00124 24.0699 1.21615C24.5674 1.4704 25.0131 1.79472 25.3977 2.18006C25.7816 2.56459 26.1047 3.00983 26.3579 3.50667C26.5734 3.92951 26.7383 4.438 26.847 4.97642C26.9182 5.32915 26.9653 6.10521 26.9867 6.70733C26.9955 6.95522 27 7.27589 27 7.42317L26.9978 20.7176Z" fill="#7D009F"/>
<path d="M20.705 6.8571C18.8636 5.02243 16.4148 4.01153 13.8057 4.0105C8.42989 4.0105 4.05463 8.36452 4.05248 13.7163C4.05179 15.427 4.50089 17.0969 5.35437 18.5689L3.9707 23.5987L9.14101 22.249C10.5656 23.0222 12.1694 23.4297 13.8018 23.4304H13.8058C19.1811 23.4304 23.5568 19.0759 23.5589 13.724C23.56 11.1305 22.5464 8.69178 20.705 6.8571ZM13.8058 21.7911H13.8025C12.3479 21.7906 10.9212 21.4017 9.67657 20.6666L9.38053 20.4918L6.31239 21.2927L7.13135 18.3157L6.93855 18.0104C6.12709 16.726 5.69851 15.2413 5.69915 13.717C5.7009 9.26878 9.33748 5.64985 13.809 5.64985C15.9742 5.65067 18.0095 6.49097 19.5401 8.01586C21.0706 9.54075 21.913 11.5678 21.9122 13.7234C21.9104 18.172 18.2739 21.7911 13.8058 21.7911ZM18.2524 15.7489C18.0086 15.6275 16.8105 15.0408 16.5871 14.9598C16.3638 14.8789 16.2013 14.8384 16.0388 15.0812C15.8764 15.324 15.4094 15.8703 15.2672 16.0322C15.125 16.194 14.9829 16.2143 14.7392 16.0929C14.4955 15.9715 13.7102 15.7154 12.7794 14.8891C12.055 14.2461 11.5659 13.4518 11.4237 13.209C11.2816 12.9662 11.4086 12.8349 11.5306 12.714C11.6402 12.6053 11.7743 12.4307 11.8961 12.2891C12.018 12.1475 12.0586 12.0463 12.1398 11.8844C12.2211 11.7226 12.1804 11.5809 12.1195 11.4595C12.0586 11.3381 11.5712 10.1444 11.3681 9.65878C11.1703 9.18586 10.9694 9.24985 10.8198 9.24242C10.6778 9.23538 10.5152 9.2339 10.3527 9.2339C10.1903 9.2339 9.92626 9.29458 9.70289 9.53739C9.47952 9.7802 8.84997 10.367 8.84997 11.5607C8.84997 12.7544 9.72318 13.9077 9.84504 14.0696C9.9669 14.2314 11.5634 16.6812 14.0081 17.7317C14.5895 17.9816 15.0434 18.1308 15.3974 18.2426C15.9812 18.4272 16.5124 18.4011 16.9324 18.3387C17.4006 18.2691 18.3742 17.752 18.5773 17.1855C18.7804 16.6189 18.7804 16.1334 18.7194 16.0322C18.6585 15.931 18.4961 15.8703 18.2524 15.7489Z" fill="white"/>
</svg>
