<svg width="27" height="28" viewBox="0 0 27 28" fill="none" xmlns="http://www.w3.org/2000/svg">
<path d="M26.9978 20.7175C26.9978 20.8653 26.9933 21.1859 26.9844 21.4336C26.9627 22.0395 26.9147 22.8215 26.842 23.1777C26.7329 23.7131 26.568 24.2184 26.3532 24.639C26.0989 25.1366 25.7746 25.5823 25.3892 25.967C25.0047 26.3508 24.5595 26.6739 24.0626 26.9271C23.6398 27.1426 23.1313 27.3075 22.5929 27.4162C22.2402 27.4874 21.4641 27.5345 20.862 27.5559C20.6141 27.5648 20.2934 27.5692 20.1462 27.5692L6.8517 27.5671C6.70387 27.5671 6.38331 27.5625 6.13565 27.5537C5.52968 27.5319 4.74777 27.4839 4.39148 27.4113C3.85609 27.3021 3.35073 27.1373 2.93014 26.9224C2.43256 26.6681 1.9869 26.3438 1.60224 25.9585C1.21835 25.5739 0.895313 25.1287 0.64212 24.6319C0.426603 24.209 0.26171 23.7006 0.153002 23.1621C0.0818139 22.8094 0.0346978 22.0333 0.0132621 21.4312C0.00445587 21.1834 0 20.8627 0 20.7154L0.00210929 7.42093C0.00210929 7.2731 0.00661789 6.95252 0.0155033 6.70486C0.0372553 6.09889 0.0852679 5.31698 0.157906 4.96072C0.267088 4.42533 0.431876 3.91997 0.646786 3.49935C0.901034 3.0018 1.22536 2.55611 1.6107 2.17145C1.99523 1.78759 2.4405 1.46453 2.93731 1.21131C3.36015 0.995843 3.86867 0.83095 4.40709 0.722242C4.75979 0.651028 5.53588 0.603912 6.13797 0.582502C6.38586 0.57367 6.70656 0.569214 6.85378 0.569214L20.1483 0.57135C20.2961 0.57135 20.6167 0.575858 20.8643 0.584743C21.4703 0.606495 22.2522 0.654508 22.6085 0.727147C23.1439 0.836328 23.6492 1.00112 24.0699 1.21603C24.5674 1.47027 25.0131 1.7946 25.3977 2.17994C25.7816 2.56447 26.1047 3.00971 26.3579 3.50655C26.5734 3.92938 26.7383 4.43788 26.847 4.9763C26.9182 5.32903 26.9653 6.10508 26.9867 6.70721C26.9955 6.9551 27 7.27576 27 7.42304L26.9978 20.7175Z" fill="#7D009F"/>
<path d="M20.705 6.85698C18.8636 5.02231 16.4148 4.01141 13.8057 4.01038C8.42989 4.01038 4.05463 8.36439 4.05248 13.7162C4.05179 15.4269 4.50089 17.0968 5.35437 18.5687L3.9707 23.5986L9.14101 22.2489C10.5656 23.0221 12.1694 23.4296 13.8018 23.4303H13.8058C19.1811 23.4303 23.5568 19.0758 23.5589 13.7239C23.56 11.1304 22.5464 8.69166 20.705 6.85698ZM13.8058 21.791H13.8025C12.3479 21.7904 10.9212 21.4015 9.67657 20.6665L9.38053 20.4916L6.31239 21.2926L7.13135 18.3156L6.93855 18.0103C6.12709 16.7258 5.69851 15.2412 5.69915 13.7168C5.7009 9.26865 9.33748 5.64973 13.809 5.64973C15.9742 5.65055 18.0095 6.49085 19.5401 8.01574C21.0706 9.54063 21.913 11.5676 21.9122 13.7233C21.9104 18.1719 18.2739 21.791 13.8058 21.791ZM18.2524 15.7488C18.0086 15.6274 16.8105 15.0406 16.5871 14.9597C16.3638 14.8787 16.2013 14.8383 16.0388 15.0811C15.8764 15.3239 15.4094 15.8702 15.2672 16.032C15.125 16.1939 14.9829 16.2142 14.7392 16.0928C14.4955 15.9714 13.7102 15.7153 12.7794 14.889C12.055 14.246 11.5659 13.4517 11.4237 13.2088C11.2816 12.966 11.4086 12.8348 11.5306 12.7139C11.6402 12.6052 11.7743 12.4306 11.8961 12.289C12.018 12.1474 12.0586 12.0462 12.1398 11.8843C12.2211 11.7224 12.1804 11.5808 12.1195 11.4594C12.0586 11.338 11.5712 10.1443 11.3681 9.65866C11.1703 9.18573 10.9694 9.24972 10.8198 9.24229C10.6778 9.23526 10.5152 9.23378 10.3527 9.23378C10.1903 9.23378 9.92626 9.29446 9.70289 9.53727C9.47952 9.78008 8.84997 10.3668 8.84997 11.5606C8.84997 12.7543 9.72318 13.9076 9.84504 14.0694C9.9669 14.2313 11.5634 16.6811 14.0081 17.7316C14.5895 17.9815 15.0434 18.1307 15.3974 18.2425C15.9812 18.427 16.5124 18.401 16.9324 18.3386C17.4006 18.269 18.3742 17.7519 18.5773 17.1854C18.7804 16.6188 18.7804 16.1332 18.7194 16.0321C18.6585 15.9309 18.4961 15.8702 18.2524 15.7488Z" fill="white"/>
</svg>
