<svg width="27" height="28" viewBox="0 0 27 28" fill="none" xmlns="http://www.w3.org/2000/svg">
<path d="M26.9978 20.7175C26.9978 20.8653 26.9933 21.1859 26.9844 21.4336C26.9627 22.0395 26.9147 22.8215 26.842 23.1777C26.7329 23.7131 26.568 24.2184 26.3532 24.639C26.0989 25.1366 25.7746 25.5823 25.3892 25.967C25.0047 26.3508 24.5595 26.6739 24.0626 26.9271C23.6398 27.1426 23.1313 27.3075 22.5929 27.4162C22.2402 27.4874 21.4641 27.5345 20.862 27.5559C20.6141 27.5648 20.2934 27.5692 20.1462 27.5692L6.8517 27.5671C6.70387 27.5671 6.38331 27.5625 6.13565 27.5537C5.52968 27.5319 4.74777 27.4839 4.39148 27.4113C3.85609 27.3021 3.35073 27.1373 2.93014 26.9224C2.43256 26.6681 1.9869 26.3438 1.60224 25.9585C1.21835 25.5739 0.895313 25.1287 0.64212 24.6319C0.426603 24.209 0.26171 23.7006 0.153002 23.1621C0.0818139 22.8094 0.0346978 22.0333 0.0132621 21.4312C0.00445587 21.1834 0 20.8627 0 20.7154L0.00210929 7.42093C0.00210929 7.2731 0.00661789 6.95252 0.0155033 6.70486C0.0372553 6.09889 0.0852679 5.31698 0.157906 4.96072C0.267088 4.42533 0.431876 3.91997 0.646786 3.49935C0.901034 3.0018 1.22536 2.55611 1.6107 2.17145C1.99523 1.78759 2.4405 1.46453 2.93731 1.21131C3.36015 0.995843 3.86867 0.83095 4.40709 0.722242C4.75979 0.651028 5.53588 0.603912 6.13797 0.582502C6.38586 0.57367 6.70656 0.569214 6.85378 0.569214L20.1483 0.57135C20.2961 0.57135 20.6167 0.575858 20.8643 0.584743C21.4703 0.606495 22.2522 0.654508 22.6085 0.727147C23.1439 0.836328 23.6492 1.00112 24.0699 1.21603C24.5674 1.47027 25.0131 1.7946 25.3977 2.17994C25.7816 2.56447 26.1047 3.00971 26.3579 3.50655C26.5734 3.92938 26.7383 4.43788 26.847 4.9763C26.9182 5.32903 26.9653 6.10508 26.9867 6.70721C26.9955 6.9551 27 7.27576 27 7.42304L26.9978 20.7175Z" fill="#7D009F"/>
<path d="M20.7049 6.85698C18.8635 5.02231 16.4147 4.01141 13.8056 4.01038C8.42977 4.01038 4.05451 8.36439 4.05236 13.7162C4.05167 15.4269 4.50077 17.0968 5.35425 18.5687L3.97058 23.5986L9.14089 22.2489C10.5655 23.0221 12.1693 23.4296 13.8017 23.4303H13.8057C19.181 23.4303 23.5566 19.0758 23.5588 13.7239C23.5599 11.1304 22.5463 8.69166 20.7049 6.85698ZM13.8057 21.791H13.8024C12.3478 21.7904 10.9211 21.4015 9.67645 20.6665L9.38041 20.4916L6.31227 21.2926L7.13122 18.3156L6.93843 18.0103C6.12696 16.7258 5.69839 15.2412 5.69903 13.7168C5.70078 9.26865 9.33735 5.64973 13.8088 5.64973C15.974 5.65055 18.0094 6.49085 19.5399 8.01574C21.0705 9.54063 21.9129 11.5676 21.9121 13.7233C21.9103 18.1719 18.2738 21.791 13.8057 21.791ZM18.2523 15.7488C18.0085 15.6274 16.8104 15.0406 16.587 14.9597C16.3637 14.8787 16.2012 14.8383 16.0387 15.0811C15.8763 15.3239 15.4092 15.8702 15.267 16.032C15.1249 16.1939 14.9827 16.2142 14.7391 16.0928C14.4953 15.9714 13.7101 15.7153 12.7793 14.889C12.0549 14.246 11.5657 13.4517 11.4236 13.2088C11.2814 12.966 11.4085 12.8348 11.5305 12.7139C11.6401 12.6052 11.7742 12.4306 11.896 12.289C12.0178 12.1474 12.0585 12.0462 12.1397 11.8843C12.2209 11.7224 12.1803 11.5808 12.1194 11.4594C12.0585 11.338 11.5711 10.1443 11.368 9.65866C11.1702 9.18573 10.9693 9.24972 10.8197 9.24229C10.6777 9.23526 10.5151 9.23378 10.3526 9.23378C10.1902 9.23378 9.92614 9.29446 9.70277 9.53727C9.4794 9.78008 8.84984 10.3668 8.84984 11.5606C8.84984 12.7543 9.72306 13.9076 9.84492 14.0694C9.96677 14.2313 11.5633 16.6811 14.008 17.7316C14.5894 17.9815 15.0433 18.1307 15.3973 18.2425C15.9811 18.427 16.5123 18.401 16.9322 18.3386C17.4004 18.269 18.374 17.7519 18.5772 17.1854C18.7802 16.6188 18.7802 16.1332 18.7193 16.0321C18.6584 15.9309 18.4959 15.8702 18.2523 15.7488Z" fill="white"/>
</svg>
