<svg width="27" height="28" viewBox="0 0 27 28" fill="none" xmlns="http://www.w3.org/2000/svg">
<path d="M26.9978 20.7176C26.9978 20.8654 26.9933 21.186 26.9844 21.4337C26.9627 22.0396 26.9147 22.8216 26.842 23.1778C26.7329 23.7132 26.568 24.2186 26.3532 24.6392C26.0989 25.1367 25.7746 25.5824 25.3892 25.9671C25.0047 26.351 24.5595 26.674 24.0626 26.9272C23.6398 27.1427 23.1313 27.3076 22.5929 27.4163C22.2402 27.4875 21.4641 27.5346 20.862 27.556C20.6141 27.5649 20.2934 27.5693 20.1462 27.5693L6.8517 27.5672C6.70387 27.5672 6.38331 27.5627 6.13565 27.5538C5.52968 27.5321 4.74777 27.484 4.39148 27.4114C3.85609 27.3022 3.35073 27.1374 2.93014 26.9225C2.43256 26.6683 1.9869 26.3439 1.60224 25.9586C1.21835 25.5741 0.895313 25.1288 0.64212 24.632C0.426603 24.2092 0.26171 23.7007 0.153002 23.1623C0.0818139 22.8095 0.0346978 22.0335 0.0132621 21.4313C0.00445587 21.1835 0 20.8628 0 20.7156L0.00210929 7.42106C0.00210929 7.27322 0.00661789 6.95264 0.0155033 6.70498C0.0372553 6.09901 0.0852679 5.3171 0.157906 4.96084C0.267088 4.42545 0.431876 3.92009 0.646786 3.49948C0.901034 3.00192 1.22536 2.55623 1.6107 2.17157C1.99523 1.78771 2.4405 1.46465 2.93731 1.21143C3.36015 0.995965 3.86867 0.831072 4.40709 0.722365C4.75979 0.65115 5.53588 0.604034 6.13797 0.582624C6.38586 0.573792 6.70656 0.569336 6.85378 0.569336L20.1483 0.571472C20.2961 0.571472 20.6167 0.57598 20.8643 0.584866C21.4703 0.606618 22.2522 0.65463 22.6085 0.727269C23.1439 0.83645 23.6492 1.00124 24.0699 1.21615C24.5674 1.4704 25.0131 1.79472 25.3977 2.18006C25.7816 2.56459 26.1047 3.00983 26.3579 3.50667C26.5734 3.92951 26.7383 4.438 26.847 4.97642C26.9182 5.32915 26.9653 6.10521 26.9867 6.70733C26.9955 6.95522 27 7.27589 27 7.42317L26.9978 20.7176Z" fill="#7D009F"/>
<path d="M20.7049 6.85735C18.8635 5.02267 16.4147 4.01177 13.8056 4.01074C8.42977 4.01074 4.05451 8.36476 4.05236 13.7166C4.05167 15.4273 4.50077 17.0972 5.35425 18.5691L3.97058 23.599L9.14089 22.2492C10.5655 23.0225 12.1693 23.43 13.8017 23.4307H13.8057C19.181 23.4307 23.5566 19.0761 23.5588 13.7243C23.5599 11.1307 22.5463 8.69202 20.7049 6.85735ZM13.8057 21.7914H13.8024C12.3478 21.7908 10.9211 21.4019 9.67645 20.6668L9.38041 20.492L6.31227 21.293L7.13122 18.3159L6.93843 18.0107C6.12696 16.7262 5.69839 15.2415 5.69903 13.7172C5.70078 9.26902 9.33735 5.6501 13.8088 5.6501C15.974 5.65092 18.0094 6.49122 19.5399 8.01611C21.0705 9.541 21.9129 11.568 21.9121 13.7237C21.9103 18.1722 18.2738 21.7914 13.8057 21.7914ZM18.2523 15.7491C18.0085 15.6278 16.8104 15.041 16.587 14.9601C16.3637 14.8791 16.2012 14.8386 16.0387 15.0815C15.8763 15.3243 15.4092 15.8706 15.267 16.0324C15.1249 16.1943 14.9827 16.2145 14.7391 16.0931C14.4953 15.9717 13.7101 15.7156 12.7793 14.8894C12.0549 14.2463 11.5657 13.452 11.4236 13.2092C11.2814 12.9664 11.4085 12.8352 11.5305 12.7142C11.6401 12.6056 11.7742 12.431 11.896 12.2893C12.0178 12.1478 12.0585 12.0465 12.1397 11.8847C12.2209 11.7228 12.1803 11.5812 12.1194 11.4598C12.0585 11.3384 11.5711 10.1446 11.368 9.65903C11.1702 9.1861 10.9693 9.25009 10.8197 9.24266C10.6777 9.23563 10.5151 9.23414 10.3526 9.23414C10.1902 9.23414 9.92614 9.29483 9.70277 9.53764C9.4794 9.78045 8.84984 10.3672 8.84984 11.5609C8.84984 12.7547 9.72306 13.908 9.84492 14.0698C9.96677 14.2317 11.5633 16.6814 14.008 17.732C14.5894 17.9818 15.0433 18.1311 15.3973 18.2429C15.9811 18.4274 16.5123 18.4014 16.9322 18.339C17.4004 18.2693 18.374 17.7523 18.5772 17.1857C18.7802 16.6192 18.7802 16.1336 18.7193 16.0324C18.6584 15.9313 18.4959 15.8706 18.2523 15.7491Z" fill="white"/>
</svg>
