<svg width="22" height="29" viewBox="0 0 22 29" fill="none" xmlns="http://www.w3.org/2000/svg">
<path d="M11.0605 24.9073C11.4693 24.9073 12.7812 24.367 14.6583 22.6457C17.6404 19.9238 21.122 15.1404 21.122 10.6371C21.122 7.97512 20.0556 5.42213 18.1573 3.53979C16.2591 1.65746 13.6845 0.599976 11 0.599976C8.31547 0.599976 5.7409 1.65746 3.84265 3.53979C1.94441 5.42213 0.877982 7.97512 0.877982 10.6371C0.877982 17.7122 9.18853 24.7572 11.0605 24.9073ZM11 4.65787C11.9541 4.65787 12.8867 4.93842 13.68 5.46402C14.4733 5.98963 15.0916 6.7367 15.4567 7.61076C15.8218 8.48481 15.9173 9.4466 15.7312 10.3745C15.545 11.3024 15.0856 12.1547 14.411 12.8237C13.7364 13.4926 12.8768 13.9482 11.9411 14.1328C11.0054 14.3174 10.0354 14.2226 9.15399 13.8606C8.27255 13.4985 7.51917 12.8854 6.98911 12.0988C6.45906 11.3122 6.17615 10.3874 6.17615 9.44129C6.17748 8.17306 6.68614 6.95714 7.5905 6.06037C8.49485 5.16359 9.72104 4.6592 11 4.65787ZM22 25.848C22 26.7837 18.1197 28.6 11 28.6C3.88028 28.6 0 26.7837 0 25.848C0 25.2226 1.81651 24.0617 5.8633 23.4613C5.93361 23.4503 6.00173 23.4283 6.06514 23.3963C7.96239 25.1725 9.81927 26.3133 10.9395 26.3984H11.0807C12.5945 26.3984 14.7995 24.5521 15.6876 23.7415C15.7986 23.6414 15.9096 23.5314 16.0206 23.4213C16.0587 23.4336 16.0974 23.4436 16.1367 23.4513C20.1835 24.0617 22 25.2226 22 25.848Z" fill="#7D009F"/>
</svg>
