<svg width="22" height="29" viewBox="0 0 22 29" fill="none" xmlns="http://www.w3.org/2000/svg">
<path d="M11.0605 24.9074C11.4693 24.9074 12.7812 24.367 14.6583 22.6458C17.6404 19.9238 21.122 15.1404 21.122 10.6372C21.122 7.97515 20.0556 5.42216 18.1573 3.53982C16.2591 1.65749 13.6845 0.600006 11 0.600006C8.31547 0.600006 5.7409 1.65749 3.84265 3.53982C1.94441 5.42216 0.877982 7.97515 0.877982 10.6372C0.877982 17.7122 9.18853 24.7573 11.0605 24.9074ZM11 4.6579C11.9541 4.6579 12.8867 4.93845 13.68 5.46406C14.4733 5.98966 15.0916 6.73673 15.4567 7.61079C15.8218 8.48484 15.9173 9.44663 15.7312 10.3745C15.545 11.3024 15.0856 12.1547 14.411 12.8237C13.7364 13.4927 12.8768 13.9483 11.9411 14.1328C11.0054 14.3174 10.0354 14.2227 9.15399 13.8606C8.27255 13.4986 7.51917 12.8855 6.98911 12.0988C6.45906 11.3122 6.17615 10.3874 6.17615 9.44132C6.17748 8.17309 6.68614 6.95718 7.5905 6.0604C8.49485 5.16362 9.72104 4.65923 11 4.6579ZM22 25.848C22 26.7837 18.1197 28.6 11 28.6C3.88028 28.6 0 26.7837 0 25.848C0 25.2226 1.81651 24.0618 5.8633 23.4613C5.93361 23.4503 6.00173 23.4284 6.06514 23.3963C7.96239 25.1726 9.81927 26.3134 10.9395 26.3984H11.0807C12.5945 26.3984 14.7995 24.5521 15.6876 23.7415C15.7986 23.6415 15.9096 23.5314 16.0206 23.4213C16.0587 23.4336 16.0974 23.4436 16.1367 23.4513C20.1835 24.0618 22 25.2226 22 25.848Z" fill="#7D009F"/>
</svg>
