<svg width="22" height="29" viewBox="0 0 22 29" fill="none" xmlns="http://www.w3.org/2000/svg">
<path d="M11.0605 24.9075C11.4693 24.9075 12.7812 24.3671 14.6583 22.6458C17.6404 19.9239 21.122 15.1405 21.122 10.6373C21.122 7.97524 20.0556 5.42225 18.1573 3.53992C16.2591 1.65758 13.6845 0.600098 11 0.600098C8.31547 0.600098 5.7409 1.65758 3.84265 3.53992C1.94441 5.42225 0.877982 7.97524 0.877982 10.6373C0.877982 17.7123 9.18853 24.7574 11.0605 24.9075ZM11 4.658C11.9541 4.658 12.8867 4.93854 13.68 5.46415C14.4733 5.98976 15.0916 6.73682 15.4567 7.61088C15.8218 8.48493 15.9173 9.44672 15.7312 10.3746C15.545 11.3025 15.0856 12.1548 14.411 12.8238C13.7364 13.4928 12.8768 13.9483 11.9411 14.1329C11.0054 14.3175 10.0354 14.2228 9.15399 13.8607C8.27255 13.4987 7.51917 12.8856 6.98911 12.0989C6.45906 11.3123 6.17615 10.3875 6.17615 9.44141C6.17748 8.17318 6.68614 6.95727 7.5905 6.06049C8.49485 5.16371 9.72104 4.65932 11 4.658ZM22 25.8481C22 26.7838 18.1197 28.6001 11 28.6001C3.88028 28.6001 0 26.7838 0 25.8481C0 25.2227 1.81651 24.0619 5.8633 23.4614C5.93361 23.4504 6.00173 23.4285 6.06514 23.3964C7.96239 25.1726 9.81927 26.3135 10.9395 26.3985H11.0807C12.5945 26.3985 14.7995 24.5522 15.6876 23.7416C15.7986 23.6416 15.9096 23.5315 16.0206 23.4214C16.0587 23.4337 16.0974 23.4437 16.1367 23.4514C20.1835 24.0619 22 25.2227 22 25.8481Z" fill="#7D009F"/>
</svg>
